<svg width="24" height="24" viewBox="0 0 24 24" fill="none" xmlns="http://www.w3.org/2000/svg">
<path fill-rule="evenodd" clip-rule="evenodd" d="M12 1.25037C7.71983 1.25037 4.25004 4.72016 4.25004 9.00037V9.70447C4.25004 10.4014 4.04375 11.0827 3.65717 11.6626L2.50856 13.3855C1.17547 15.3851 2.19318 18.1032 4.51177 18.7355C5.26738 18.9416 6.02937 19.1159 6.79578 19.2584L6.79768 19.2636C7.56667 21.3155 9.62198 22.7504 12 22.7504C14.378 22.7504 16.4333 21.3155 17.2023 19.2636L17.2042 19.2585C17.9706 19.1159 18.7327 18.9416 19.4883 18.7355C21.8069 18.1032 22.8246 15.3851 21.4915 13.3855L20.3429 11.6626C19.9563 11.0827 19.75 10.4014 19.75 9.70447V9.00037C19.75 4.72016 16.2802 1.25037 12 1.25037ZM15.3764 19.5373C13.1335 19.8053 10.8664 19.8053 8.62349 19.5373C9.33444 20.5588 10.571 21.2504 12 21.2504C13.4289 21.2504 14.6655 20.5589 15.3764 19.5373ZM5.75004 9.00037C5.75004 5.54859 8.54826 2.75037 12 2.75037C15.4518 2.75037 18.25 5.54859 18.25 9.00037V9.70447C18.25 10.6975 18.544 11.6684 19.0948 12.4946L20.2434 14.2175C21.0086 15.3653 20.4245 16.9254 19.0936 17.2884C14.4494 18.555 9.5507 18.555 4.90644 17.2884C3.57561 16.9254 2.99147 15.3653 3.75664 14.2175L4.90524 12.4946C5.45609 11.6684 5.75004 10.6975 5.75004 9.70447V9.00037Z" fill="#1C274C"/>
</svg>
