<svg width="24" height="24" viewBox="0 0 24 24" fill="none" xmlns="http://www.w3.org/2000/svg">
<path fill-rule="evenodd" clip-rule="evenodd" d="M16.3939 2.0217L16.4604 2.03952C17.5598 2.33409 18.431 2.56753 19.1162 2.81507C19.8172 3.06827 20.3888 3.35793 20.8597 3.79896C21.5453 4.44117 22.0252 5.27228 22.2385 6.1872C22.385 6.81551 22.3501 7.45535 22.2189 8.18898C22.0906 8.90622 21.8572 9.77746 21.5626 10.8769L21.0271 12.8752C20.7326 13.9745 20.4991 14.8457 20.2516 15.5309C19.9984 16.2319 19.7087 16.8035 19.2677 17.2744C18.6459 17.9382 17.8471 18.4091 16.9665 18.632C16.7093 19.2218 16.3336 19.7558 15.8597 20.1997C15.3888 20.6408 14.8172 20.9304 14.1162 21.1836C13.431 21.4312 12.5598 21.6646 11.4605 21.9592L11.394 21.977C10.2946 22.2716 9.42337 22.505 8.70613 22.6333C7.9725 22.7645 7.33266 22.7994 6.70435 22.6529C5.78943 22.4396 4.95832 21.9597 4.31611 21.2741C3.87508 20.8032 3.58542 20.2316 3.33222 19.5306C3.08468 18.8454 2.85124 17.9742 2.55667 16.8748L2.02122 14.8765C1.72664 13.7771 1.4932 12.9059 1.36495 12.1887C1.23376 11.455 1.19881 10.8152 1.34531 10.1869C1.55864 9.27198 2.03849 8.44086 2.72417 7.79866C3.19505 7.35762 3.76664 7.06797 4.46758 6.81477C5.15283 6.56723 6.02404 6.33379 7.12341 6.03922L7.15665 6.03032C7.42112 5.95945 7.67134 5.89252 7.90825 5.82993C8.29986 4.4308 8.64448 3.44175 9.31611 2.72465C9.95831 2.03897 10.7894 1.55913 11.7043 1.3458C12.3327 1.1993 12.9725 1.23425 13.7061 1.36543C14.4233 1.49368 15.2945 1.72712 16.3939 2.0217ZM7.45502 7.50329C6.36214 7.79619 5.57905 8.00813 4.9772 8.22554C4.36778 8.44569 4.00995 8.64956 3.74955 8.89345C3.2804 9.33286 2.95209 9.90152 2.80613 10.5275C2.72511 10.875 2.72747 11.2868 2.84152 11.9246C2.95723 12.5717 3.17355 13.3815 3.47902 14.5215L3.99666 16.4533C4.30212 17.5933 4.51967 18.4028 4.74299 19.021C4.96314 19.6304 5.16701 19.9883 5.4109 20.2487C5.85031 20.7178 6.41897 21.0461 7.04496 21.1921C7.39242 21.2731 7.80425 21.2708 8.4421 21.1567C9.08915 21.041 9.89893 20.8247 11.0389 20.5192C12.1789 20.2137 12.9884 19.9962 13.6066 19.7729C14.216 19.5527 14.5739 19.3488 14.8343 19.105C14.9719 18.9761 15.0973 18.8362 15.2096 18.6869C15.0306 18.6617 14.8463 18.6295 14.6557 18.5916C13.9839 18.458 13.1769 18.2418 12.1808 17.9749L12.1234 17.9595C11.024 17.6649 10.1528 17.4315 9.46758 17.1839C8.76664 16.9307 8.19505 16.6411 7.72416 16.2001C7.03849 15.5578 6.55864 14.7267 6.34531 13.8118C6.19881 13.1835 6.23376 12.5437 6.36494 11.81C6.4932 11.0928 6.72664 10.2216 7.02122 9.12223L7.45502 7.50329ZM13.4421 2.84201C12.8042 2.72795 12.3924 2.7256 12.045 2.80662C11.419 2.95258 10.8503 3.28089 10.4109 3.75004C9.97479 4.21567 9.70642 4.93501 9.2397 6.64371C9.16384 6.92142 9.08365 7.22071 8.99665 7.54537L8.47902 9.47722C8.17355 10.6172 7.95723 11.427 7.84152 12.0741C7.72747 12.7119 7.72511 13.1237 7.80613 13.4712C7.95209 14.0972 8.2804 14.6659 8.74955 15.1053C9.00995 15.3491 9.36778 15.553 9.9772 15.7732C10.5954 15.9965 11.4049 16.214 12.5449 16.5195C13.5703 16.7943 14.3303 16.9975 14.9482 17.1204C15.5635 17.2427 15.981 17.2727 16.3232 17.2305C16.3976 17.2214 16.4691 17.2086 16.5389 17.1924C17.1649 17.0464 17.7335 16.7181 18.1729 16.249C18.4168 15.9886 18.6207 15.6307 18.8408 15.0213C19.0642 14.4031 19.2817 13.5936 19.5872 12.4536L20.1048 10.5218C20.4103 9.38178 20.6266 8.572 20.7423 7.92495C20.8564 7.2871 20.8587 6.87527 20.7777 6.52781C20.6317 5.90182 20.3034 5.33316 19.8343 4.89375C19.5739 4.64986 19.216 4.44599 18.6066 4.22584C17.9884 4.00252 17.1789 3.78497 16.0389 3.47951C14.8989 3.17404 14.0892 2.95772 13.4421 2.84201Z" fill="#1C274C"/>
</svg>
