<svg width="24" height="24" viewBox="0 0 24 24" fill="none" xmlns="http://www.w3.org/2000/svg">
<path d="M16.9585 9.75049C16.5443 9.75049 16.2085 9.4147 16.2085 9.00049L16.2085 2.00049C16.2085 1.58627 16.5443 1.25049 16.9585 1.25049C17.3727 1.25049 17.7085 1.58627 17.7085 2.00049L17.7085 9.00049C17.7085 9.4147 17.3727 9.75049 16.9585 9.75049Z" fill="#1C274C"/>
<path fill-rule="evenodd" clip-rule="evenodd" d="M7 5.75049C9.07107 5.75049 10.75 7.42942 10.75 9.50049C10.75 11.5716 9.07107 13.2505 7 13.2505C4.92893 13.2505 3.25 11.5716 3.25 9.50049C3.25 7.42942 4.92893 5.75049 7 5.75049ZM9.25 9.50049C9.25 8.25785 8.24264 7.25049 7 7.25049C5.75736 7.25049 4.75 8.25785 4.75 9.50049C4.75 10.7431 5.75736 11.7505 7 11.7505C8.24264 11.7505 9.25 10.7431 9.25 9.50049Z" fill="#1C274C"/>
<path fill-rule="evenodd" clip-rule="evenodd" d="M17 18.2505C19.0711 18.2505 20.75 16.5716 20.75 14.5005C20.75 12.4294 19.0711 10.7505 17 10.7505C14.9289 10.7505 13.25 12.4294 13.25 14.5005C13.25 16.5716 14.9289 18.2505 17 18.2505ZM19.25 14.5005C19.25 15.7431 18.2426 16.7505 17 16.7505C15.7574 16.7505 14.75 15.7431 14.75 14.5005C14.75 13.2578 15.7574 12.2505 17 12.2505C18.2426 12.2505 19.25 13.2578 19.25 14.5005Z" fill="#1C274C"/>
<path d="M6.20852 15.0005C6.20852 14.5863 6.54431 14.2505 6.95852 14.2505C7.37273 14.2505 7.70852 14.5863 7.70852 15.0005V22.0005C7.70852 22.4147 7.37273 22.7505 6.95852 22.7505C6.54431 22.7505 6.20852 22.4147 6.20852 22.0005V15.0005Z" fill="#1C274C"/>
<path d="M16.9585 22.7505C16.5443 22.7505 16.2085 22.4147 16.2085 22.0005V20.0005C16.2085 19.5863 16.5443 19.2505 16.9585 19.2505C17.3727 19.2505 17.7085 19.5863 17.7085 20.0005V22.0005C17.7085 22.4147 17.3727 22.7505 16.9585 22.7505Z" fill="#1C274C"/>
<path d="M6.20852 2.00049C6.20852 1.58628 6.54431 1.25049 6.95852 1.25049C7.37273 1.25049 7.70852 1.58628 7.70852 2.00049V4.00049C7.70852 4.4147 7.37273 4.75049 6.95852 4.75049C6.54431 4.75049 6.20852 4.4147 6.20852 4.00049V2.00049Z" fill="#1C274C"/>
</svg>
